<svg xmlns="http://www.w3.org/2000/svg" xmlns:xlink="http://www.w3.org/1999/xlink" version="1.1" style="shape-rendering:geometricPrecision;text-rendering:geometricPrecision;image-rendering:optimizeQuality;" viewBox="-20 -20 320 320" x="0px" y="0px" fill-rule="evenodd" clip-rule="evenodd">
  <defs></defs>
  <g>
    <path class="fill" d="M67.7 4.23l0 137.76c0,39.62 32.38,71.98 71.99,71.98 39.61,0 71.98,-32.37 71.98,-71.98l0 -137.76c0,-2.33 1.9,-4.23 4.23,-4.23l59.24 0c2.33,0 4.23,1.9 4.23,4.23l0 137.76c0,76.97 -62.71,139.68 -139.68,139.68 -76.98,0 -139.68,-62.7 -139.68,-139.68l0 -137.76c0,-2.33 1.9,-4.23 4.23,-4.23l59.24 0c2.33,0 4.23,1.9 4.23,4.23zm-12.69 8.46l-42.32 0 0 48.15 42.32 0 0 -48.15zm211.66 48.15l0 -48.15 -42.32 0 0 48.15 42.32 0z"/>
  </g>
</svg>
